<?xml version="1.0" encoding="UTF-8"?>
<svg id="Layer_1" xmlns="http://www.w3.org/2000/svg" version="1.1" viewBox="0 0 32 32">
  <!-- Generator: Adobe Illustrator 30.3.0, SVG Export Plug-In . SVG Version: 2.1.3 Build 182)  -->
  <g id="rIiPN2.tif">
    <g>
      <path d="M19.53,25.78l-4.17.03-.22-.88c-.97.59-1.79,1.09-2.87,1.2-2.63.25-5-1.04-6.13-3.45-.8-1.73-.89-3.76-.39-5.61.83-3.07,3.68-4.87,6.84-4.49.92.11,1.68.52,2.54.98l.3-.83,4.05.04.04,13.01ZM12.74,21.99c.79-.03,1.46-.21,2-.73.49-.47.61-1.16.65-1.92.09-1.69-1.31-3.02-3.02-2.86-1.51.14-2.55,1.66-2.3,3.24.22,1.4,1.23,2.33,2.67,2.28Z"/>
      <polygon points="26.39 25.8 22.18 25.8 22.18 12.76 26.38 12.76 26.39 25.8"/>
      <path d="M26.55,8.79c-.27,1.16-1.03,1.83-2.01,1.92s-1.97-.34-2.41-1.39c-.32-.76-.27-1.49.07-2.25.29-.63,1.02-1.23,1.87-1.29,1.6-.11,2.83,1.46,2.47,3Z"/>
    </g>
  </g>
  <path d="M30.75,1.25v29.45H1.3V1.25h29.45M32.05-.05H0v32.05h32.05V-.05h0Z"/>
</svg>