<?xml version="1.0" encoding="UTF-8"?>
<svg id="Layer_1" xmlns="http://www.w3.org/2000/svg" version="1.1" viewBox="0 0 237.77 98.82">
  <!-- Generator: Adobe Illustrator 30.3.0, SVG Export Plug-In . SVG Version: 2.1.3 Build 182)  -->
  <defs>
    <style>
      .st0 {
        fill: #fff;
      }
    </style>
  </defs>
  <g id="rIiPN2.tif">
    <g>
      <path class="st0" d="M178.57,98.49H3.16c-.97.52-2.5.42-3.2-.25L0,0h182.33s-.02,98.03-.02,98.03c-1.06.61-1.83.68-3.73.46ZM176.07,93.96c1.25-.29,1.73-.98,1.73-1.99l.02-87.05-173.25.02.02,86.92c0,1.23.78,2.05,1.87,2.18l42.98-.1,126.64.02Z"/>
      <path class="st0" d="M224.23,38.49c-8.01-.01-13.66-6.52-12.74-14.08s7.73-12.16,15.26-10.82c6.67,1.19,11.59,6.72,10.97,13.41-.63,6.83-6.24,11.49-13.49,11.48ZM228.77,27.44c.53-1.86.17-4.12-1.03-5.09-1.09-.89-3.16-1.29-4.7-.93-2.28.52-3.28,3.01-2.94,5.1.28,1.77,1.95,3.3,3.78,3.67s4.22-.37,4.89-2.75Z"/>
      <path class="st0" d="M208.05,37.32c-2.61.44-5.01.45-7.99.23l.02-23.08,7.93-.04.04,22.89Z"/>
      <path class="st0" d="M196.68,31.98c.88,2.18-.26,4.36-1.78,5.47-1.64,1.21-4.08,1.25-5.7.01s-2.66-3.58-1.75-5.69c.82-1.89,2.5-3.37,4.37-3.46,1.97-.1,3.97,1.49,4.85,3.67Z"/>
      <path class="st0" d="M204.97,11.16c-2.17.56-4.11-.86-4.98-2.42-.97-1.75-.89-3.68.36-5.56,1.16-1.74,3.5-2.17,5.64-1.46,1.66.55,3.05,2.72,3.06,4.93,0,1.81-1.67,3.88-4.08,4.51Z"/>
      <path class="st0" d="M147.57,80.45c-7.35.6-13.2-1.74-17-7.79-5.54-8.82-5.01-20.58,1.71-27.77,6.62-7.1,18.28-6.69,26.58-1.03l.22-25.3h11.75l.36,61.41h-12.03s-1.14-1.6-1.14-1.6l-1.62.52c-3.04.97-5.74,1.32-8.83,1.57ZM155.55,66.69c4.1-3.66,3.51-10.48-.57-13.67-2.81-2.2-6.21-1.96-9.24-.69-2.84,1.19-4.39,3.72-4.59,6.86-.23,3.57,1.57,6.96,4.59,8.62,2.85,1.57,6.88,1.47,9.8-1.13Z"/>
      <path class="st0" d="M54.33,80.02l-12.86.09-.67-2.72c-2.99,1.8-5.52,3.37-8.86,3.69-8.12.79-15.43-3.2-18.9-10.65-2.48-5.32-2.74-11.61-1.19-17.3,2.57-9.46,11.36-15.01,21.09-13.84,2.84.34,5.17,1.59,7.84,3.03l.92-2.55,12.5.13.13,40.11ZM33.41,68.31c2.44-.08,4.5-.63,6.17-2.26,1.51-1.46,1.88-3.58,2.01-5.93.29-5.22-4.04-9.33-9.32-8.83-4.64.43-7.86,5.13-7.09,9.99.68,4.33,3.79,7.18,8.23,7.03Z"/>
      <polygon class="st0" points="75.5 80.07 62.49 80.08 62.49 39.87 75.46 39.86 75.5 80.07"/>
      <path class="st0" d="M75.96,27.63c-.84,3.56-3.17,5.63-6.2,5.92s-6.09-1.06-7.42-4.27c-.97-2.34-.84-4.6.23-6.93.88-1.94,3.14-3.79,5.78-3.96,4.94-.33,8.74,4.51,7.62,9.25Z"/>
    </g>
  </g>
  <path class="st0" d="M108.09,80.08h13.01s-.04-30.15-.04-30.15c0-4.67-3.75-8.8-7.94-10.41-3.84-1.47-8.7-1.41-12.53.11-1.59.64-3.03,1.73-4.29,2.88-.11.1-.37.31-.66.55v-3.21s-12.97.01-12.97.01v40.21h13.01s-.03-25.24-.03-25.24c1.04-2.4,3.04-5.02,6.91-4.93,6.02.15,5.52,6.54,5.52,6.54v23.63Z"/>
</svg>